PathFileType  4	(X/Y/Z) C:\Users\antoi\Documents\MyRepositories\mobilecap\ResultsAnalysis
DataRate	CameraRate	NumFrames	NumMarkers	Units	OrigDataRate	OrigDataStartFrame	OrigNumFrames
100.0	100.0	4	51	mm	100.0	331	1321
Frame#	Time	r_knee			r_shank_antsup			r_ankle			r_calc			r_5meta			r_toe			L_knee			L_shank_antsup			L_ankle			L_calc			L_5meta			L_toe			r_sh2			r_sh3			r_sh4			L_sh2			L_sh3			r_thigh1			r_thigh2			r_thigh3			r_thigh4			r_thigh5			L_thigh1			L_thigh2			L_thigh3			L_thigh4			r.ASIS			r.PSIS			L.ASIS			L.PSIS			C7			R_Shoulder			L_Shoulder			R_Sternum			L_Sternum			R_humerus			R_elbow_med			R_elbow_lat			R_forearm			R_wrist_radius			R_wrist_ulna			L_humerus			L_elbow_med			L_elbow_lat			L_forearm			L_wrist_radius			L_wrist_ulna			R_HJC			L_HJC			R_HJC_reg			L_HJC_reg			
		X1	Y1	Z1	X2	Y2	Z2	X3	Y3	Z3	X4	Y4	Z4	X5	Y5	Z5	X6	Y6	Z6	X7	Y7	Z7	X8	Y8	Z8	X9	Y9	Z9	X10	Y10	Z10	X11	Y11	Z11	X12	Y12	Z12	X13	Y13	Z13	X14	Y14	Z14	X15	Y15	Z15	X16	Y16	Z16	X17	Y17	Z17	X18	Y18	Z18	X19	Y19	Z19	X20	Y20	Z20	X21	Y21	Z21	X22	Y22	Z22	X23	Y23	Z23	X24	Y24	Z24	X25	Y25	Z25	X26	Y26	Z26	X27	Y27	Z27	X28	Y28	Z28	X29	Y29	Z29	X30	Y30	Z30	X31	Y31	Z31	X32	Y32	Z32	X33	Y33	Z33	X34	Y34	Z34	X35	Y35	Z35	X36	Y36	Z36	X37	Y37	Z37	X38	Y38	Z38	X39	Y39	Z39	X40	Y40	Z40	X41	Y41	Z41	X42	Y42	Z42	X43	Y43	Z43	X44	Y44	Z44	X45	Y45	Z45	X46	Y46	Z46	X47	Y47	Z47	X48	Y48	Z48	X49	Y49	Z49	X50	Y50	Z50	X51	Y51	Z51	

331	3.30000000	-149.46271	437.45792	-416.95188	-95.47847	376.91370	-416.76755	-248.74587	83.20852	-432.36489	-303.95089	53.84074	-478.09119	-144.79127	43.08228	-401.85260	-105.72283	63.04930	-453.65431	-132.53018	438.04737	-773.89035	-85.99424	349.48560	-759.79172	-234.99464	88.95310	-759.37989	-293.65784	50.34842	-713.24317	-138.92986	45.17197	-796.74426	-85.39621	60.77700	-745.40162	-137.73398	271.81836	-413.84472	-162.66341	403.36154	-390.48622	-210.90766	297.68956	-388.40622	-157.65970	385.06653	-800.59701	-195.43591	268.15734	-805.47653	-369.48762	556.77149	-395.50578	-261.38553	525.41870	-398.13702	-259.34781	454.22872	-397.76161	-404.13518	447.13498	-410.66258	-289.77699	418.83205	-424.18543	-379.12274	563.45671	-804.10938	-249.48137	525.94523	-787.22931	-419.65275	457.49839	-800.52723	-287.44483	419.52750	-771.77986	-384.63433	610.96223	-498.16339	-570.60757	686.61896	-571.55119	-380.17867	605.50489	-707.14645	-570.29400	682.42878	-652.29772	-269.94593	1024.79991	-602.31130	-214.74099	988.12962	-474.51951	-203.26834	994.10608	-718.01553	-166.70199	922.09379	-580.03882	-169.87367	922.43090	-609.92572	-151.64334	927.10484	-411.80504	-68.17069	729.10259	-367.89548	-49.01474	776.66349	-321.01451	35.76191	816.51469	-335.53690	168.88516	831.37467	-375.57914	177.22388	797.29543	-359.05342	-135.27343	949.91019	-786.76479	-1.92017	772.74399	-815.38614	4.64674	826.01574	-856.41125	105.67811	858.49431	-835.02987	221.66484	875.48948	-790.92974	230.89154	839.17514	-806.36703	-481.88335	545.27670	-498.25096	-477.12083	541.37526	-705.66699	-465.52333	567.48640	-524.45637	-464.98859	560.33481	-662.27680	
332	3.31000000	-147.29583	437.42732	-417.44521	-94.04418	376.37103	-416.85437	-248.59601	83.28861	-432.42270	-303.83359	54.00184	-478.05657	-144.72736	42.95539	-401.78724	-105.66799	62.80557	-453.63059	-129.55060	438.25643	-772.89269	-84.21552	349.11756	-759.03897	-234.83197	89.00730	-759.19485	-293.63829	50.41101	-713.24468	-138.90019	45.10386	-796.69787	-85.37036	60.70185	-745.39444	-137.05899	271.53034	-413.87623	-161.00529	403.38905	-390.55204	-209.69503	297.76287	-388.46541	-155.83407	385.16866	-799.21266	-194.46439	268.56181	-804.51584	-364.52468	561.90900	-395.74061	-257.95516	528.76980	-397.99679	-256.66601	457.07100	-397.64730	-401.53960	453.02870	-410.69496	-287.96908	422.36515	-424.26119	-373.14411	569.15713	-803.37224	-244.23087	528.65811	-786.31106	-415.89871	464.04121	-800.33044	-284.69700	423.25685	-771.29392	-380.02192	617.73715	-498.33877	-565.42526	695.48993	-572.18080	-375.19587	612.35818	-706.28471	-564.85875	691.21987	-652.98722	-265.21895	1032.94591	-601.74395	-210.31851	996.04152	-473.58379	-198.93058	1001.82905	-718.02994	-162.82184	929.49073	-579.06192	-164.95686	930.77562	-609.38413	-147.97319	933.93893	-410.58498	-66.51962	734.85228	-368.55828	-46.95337	781.79487	-321.21463	38.09456	821.34242	-335.35715	171.41459	835.71343	-375.43419	179.54412	801.57920	-359.03093	-131.54932	957.11999	-788.00671	-0.09651	778.26327	-815.97501	6.71179	831.52951	-857.65523	107.92125	864.10592	-836.73886	223.82372	881.15264	-792.17028	232.96131	844.95276	-807.51626	-478.27852	553.20176	-498.39586	-472.74369	549.17127	-705.79050	-461.37788	575.53438	-524.74030	-460.41785	568.28907	-661.87248	
333	3.32000000	-145.43513	437.56131	-417.47323	-92.85400	375.90690	-416.50929	-248.49242	83.27646	-432.36296	-303.75538	54.15611	-477.99582	-144.69294	42.80891	-401.69684	-105.58760	62.57927	-453.58922	-127.09695	437.92667	-771.30467	-82.48226	348.89169	-758.76048	-234.69302	89.13374	-759.29885	-293.65454	50.50893	-713.33914	-138.88698	45.05605	-796.71505	-85.38791	60.58175	-745.41150	-136.63892	271.52134	-413.45177	-159.52615	403.49601	-390.28255	-208.99093	298.19202	-388.14469	-154.30126	385.10199	-798.01220	-193.63402	268.88655	-803.96946	-359.63102	567.41653	-395.90826	-254.53897	532.14940	-397.58910	-254.36499	459.96879	-397.49670	-399.20343	459.49473	-410.64583	-286.45846	426.04381	-424.32752	-367.19597	575.05460	-802.95384	-239.21713	531.25011	-785.49881	-412.44880	470.82501	-799.71845	-282.29452	427.08578	-770.89830	-375.42595	625.14840	-498.68888	-560.25534	705.00856	-572.66106	-370.91267	620.42432	-707.49573	-559.43160	700.54862	-653.59691	-260.94963	1041.98534	-601.43715	-206.33088	1004.65473	-472.45089	-195.06031	1010.56291	-718.15768	-158.92849	938.38672	-578.19210	-160.27297	940.37501	-609.11255	-144.81702	941.59246	-409.24044	-65.59313	741.20795	-369.35696	-45.86156	787.44032	-321.38943	39.58815	826.54536	-335.02251	173.11355	839.99040	-375.34791	180.95700	805.70584	-359.17193	-128.53509	964.96343	-789.60840	0.78431	784.36430	-817.30270	7.78456	837.36770	-859.21456	109.10752	869.76135	-838.50753	225.14437	886.58718	-793.30686	234.10695	850.48536	-808.90164	-474.30204	561.56801	-499.31647	-468.87934	558.02644	-706.72008	-457.72929	584.11745	-525.46138	-456.32582	576.52905	-663.12713	
334	3.33000000	-143.92671	437.82090	-417.10214	-91.93850	375.62268	-415.74989	-248.42860	83.23706	-432.16098	-303.73960	54.29293	-477.87687	-144.66802	42.66111	-401.61118	-105.53152	62.41127	-453.52698	-125.05683	437.49940	-769.89154	-81.18794	348.57909	-758.47918	-234.59572	89.34002	-759.71300	-293.65562	50.66084	-713.65476	-138.86738	44.98087	-796.75440	-85.41143	60.45032	-745.44589	-136.30741	271.63951	-412.78246	-158.42229	403.63584	-389.61232	-208.77321	298.55451	-387.87384	-152.87248	385.21881	-797.60713	-192.84845	269.34704	-804.07644	-354.85762	573.16812	-395.88499	-250.89046	535.61284	-396.89990	-252.42307	463.12046	-397.10750	-397.11716	466.44179	-410.89540	-285.21624	429.95379	-424.24439	-361.37352	581.15521	-802.83837	-234.50641	533.96680	-785.05897	-409.28614	478.03145	-799.10155	-280.28502	430.98916	-770.36089	-370.99543	633.17698	-498.79926	-555.14643	715.09491	-572.89618	-367.23334	629.30809	-710.11751	-554.00492	710.47899	-653.97924	-257.02319	1051.87679	-601.20038	-202.68303	1014.11813	-471.35489	-191.56929	1020.10049	-718.41987	-154.86698	948.60811	-577.14119	-156.07463	950.59012	-608.50257	-141.86406	950.22829	-408.07800	-65.37983	748.36790	-369.83892	-45.54060	793.88381	-321.33493	40.35778	832.15746	-334.68278	174.18928	844.22337	-375.19686	181.64016	809.74978	-359.18881	-126.11060	973.27094	-791.12256	0.80705	791.17618	-819.42029	8.04556	843.65169	-861.13428	109.55734	875.52371	-840.39060	225.81199	891.80642	-794.50690	234.50197	855.64614	-810.33766	-470.22699	570.43312	-500.54116	-465.51331	567.69020	-707.97433	-454.62551	592.90509	-526.28887	-452.66077	584.97410	-665.56648	
